<svg width="66" height="32" viewBox="0 0 66 32" fill="none" xmlns="http://www.w3.org/2000/svg">
<g clip-path="url(#clip0_3376_33891)">
<path d="M22.745 14.5731H7.79879C6.75554 14.5731 5.85507 15.3711 5.80907 16.4094C5.76016 17.511 6.64229 18.4199 7.73862 18.4199H20.2646C21.7374 18.4199 23.0319 19.4105 23.3885 20.8331C23.5902 21.6376 23.6555 22.5563 23.3544 23.4484C24.4504 21.9707 25.2573 20.2676 25.6881 18.4199C25.9214 17.4192 26.0488 16.3779 26.0488 15.3067V15.2991C26.0488 14.898 25.7223 14.5731 25.3189 14.5731H22.745Z" fill="url(#paint0_linear_3376_33891)"/>
<path d="M22.5993 23.7292C22.682 23.3162 22.9011 21.9226 22.5631 21.0724C22.3816 20.6154 22.1313 20.1757 21.7707 19.878C20.1618 23.0478 16.8638 25.2227 13.0535 25.2227C7.66154 25.2227 3.29084 20.87 3.29084 15.5002C3.29084 10.13 7.66154 5.7772 13.0535 5.7772C17.8063 5.7772 21.7642 9.15969 22.6362 13.6393H25.3608C25.5825 13.6393 25.7939 13.6834 25.988 13.7624C25.1344 7.40478 19.6713 2.5 13.0535 2.5C5.84434 2.5 0 8.32069 0 15.5002C0 22.6797 5.84434 28.5 13.0535 28.5C16.4411 28.5 19.5269 27.2149 21.8472 25.1076C21.8472 25.1076 22.4566 24.4374 22.5993 23.7292Z" fill="#1C3157"/>
<path d="M42.4492 23.4037H42.7978L43.9437 24.9577V23.4037H44.3131V25.6511H43.9978L42.8192 24.0518V25.6511H42.4492V23.4037Z" fill="#9C9B9B"/>
<path d="M46.019 24.8135V24.807C46.019 24.5086 45.8147 24.2612 45.5253 24.2612C45.2284 24.2612 45.0389 24.5044 45.0389 24.8003V24.807C45.0389 25.1022 45.2442 25.3492 45.5308 25.3492C45.8305 25.3492 46.019 25.1055 46.019 24.8135ZM44.6694 24.8135V24.807C44.6694 24.3221 45.0356 23.9208 45.5308 23.9208C46.026 23.9208 46.3902 24.3157 46.3902 24.8003V24.807C46.3902 25.288 46.023 25.6897 45.5253 25.6897C45.033 25.6897 44.6694 25.2947 44.6694 24.8135Z" fill="#9C9B9B"/>
<path d="M47.4268 25.4295L47.5914 25.1661C47.7689 25.3037 47.9556 25.375 48.12 25.375C48.2792 25.375 48.3707 25.3037 48.3707 25.1922V25.1857C48.3707 25.0538 48.1994 25.0094 48.0101 24.9479C47.7716 24.8772 47.5058 24.7746 47.5058 24.4507V24.4437C47.5058 24.1228 47.7593 23.9272 48.0804 23.9272C48.2818 23.9272 48.5021 24.0007 48.6732 24.1198L48.5266 24.3957C48.3707 24.2961 48.2059 24.2352 48.071 24.2352C47.9277 24.2352 47.845 24.3062 47.845 24.4017V24.4082C47.845 24.5339 48.0199 24.5851 48.2089 24.6494C48.4446 24.7265 48.7098 24.8389 48.7098 25.1438V25.1502C48.7098 25.5065 48.4472 25.6832 48.1109 25.6832C47.8812 25.6832 47.6284 25.596 47.4268 25.4295Z" fill="#9C9B9B"/>
<path d="M50.133 24.6843C50.1083 24.4351 49.9679 24.2392 49.7233 24.2392C49.498 24.2392 49.338 24.4219 49.3054 24.6843H50.133ZM48.938 24.8098V24.8034C48.938 24.3193 49.2654 23.9208 49.727 23.9208C50.2399 23.9208 50.4993 24.3445 50.4993 24.8325C50.4993 24.8677 50.4963 24.9031 50.4939 24.9415H49.3076C49.3483 25.2177 49.5339 25.3714 49.7727 25.3714C49.9526 25.3714 50.0811 25.3012 50.2094 25.1698L50.4254 25.3714C50.2733 25.5645 50.0625 25.6897 49.7668 25.6897C49.2986 25.6897 48.938 25.333 48.938 24.8098Z" fill="#9C9B9B"/>
<path d="M50.792 25.0345V23.956H51.1625V24.919C51.1625 25.182 51.287 25.3299 51.5064 25.3299C51.7211 25.3299 51.8703 25.1762 51.8703 24.9129V23.956H52.2432V25.651H51.8703V25.3872C51.7668 25.5485 51.6169 25.6862 51.3663 25.6862C51.0025 25.6862 50.792 25.4294 50.792 25.0345Z" fill="#9C9B9B"/>
<path d="M53.5737 25.1821V24.2897H53.3691V23.956H53.5737V23.4907H53.9442V23.956H54.3771V24.2897H53.9442V25.1215C53.9442 25.2724 54.0163 25.333 54.1417 25.333C54.2245 25.333 54.2977 25.314 54.3707 25.2761V25.5932C54.2792 25.6477 54.1787 25.6799 54.0376 25.6799C53.7659 25.6799 53.5737 25.5549 53.5737 25.1821Z" fill="#9C9B9B"/>
<path d="M55.7974 24.6843C55.7735 24.4351 55.6328 24.2392 55.3879 24.2392C55.1626 24.2392 55.0037 24.4219 54.9695 24.6843H55.7974ZM54.603 24.8098V24.8034C54.603 24.3193 54.9303 23.9208 55.3919 23.9208C55.9051 23.9208 56.1646 24.3445 56.1646 24.8325C56.1646 24.8677 56.1614 24.9031 56.1587 24.9415H54.9721C55.0124 25.2177 55.1985 25.3714 55.4371 25.3714C55.617 25.3714 55.7459 25.3012 55.8733 25.1698L56.0913 25.3714C55.9382 25.5645 55.7278 25.6897 55.431 25.6897C54.9634 25.6897 54.603 25.333 54.603 24.8098Z" fill="#9C9B9B"/>
<path d="M56.4751 23.956H56.8441V24.2129C56.9483 24.0623 57.089 23.9207 57.3364 23.9207C57.5686 23.9207 57.7337 24.0396 57.8189 24.219C57.9476 24.0396 58.1178 23.9207 58.3623 23.9207C58.7146 23.9207 58.9283 24.1553 58.9283 24.5692V25.6511H58.559V24.6882C58.559 24.4183 58.4396 24.2738 58.2321 24.2738C58.03 24.2738 57.8868 24.4218 57.8868 24.6944V25.6511H57.5171V24.6844C57.5171 24.4218 57.3945 24.2738 57.1902 24.2738C56.9856 24.2738 56.8441 24.4351 56.8441 24.6944V25.6511H56.4751V23.956Z" fill="#9C9B9B"/>
<path d="M60.6084 24.807V24.8003C60.6084 24.4727 60.3971 24.2579 60.1469 24.2579C59.8955 24.2579 59.6759 24.4758 59.6759 24.8003V24.807C59.6759 25.1312 59.8955 25.3492 60.1469 25.3492C60.4004 25.3492 60.6084 25.141 60.6084 24.807ZM59.3154 23.956H59.685V24.2391C59.8044 24.0622 59.9727 23.9207 60.2354 23.9207C60.6141 23.9207 60.9829 24.2352 60.9829 24.8003V24.807C60.9829 25.3684 60.6166 25.6863 60.2354 25.6863C59.9662 25.6863 59.7983 25.5454 59.685 25.3872V26.1647H59.3154V23.956Z" fill="#9C9B9B"/>
<path d="M62.5651 24.8135V24.807C62.5651 24.5086 62.3605 24.2612 62.0699 24.2612C61.7746 24.2612 61.5841 24.5044 61.5841 24.8003V24.807C61.5841 25.1022 61.7896 25.3492 62.076 25.3492C62.3765 25.3492 62.5651 25.1055 62.5651 24.8135ZM61.2148 24.8135V24.807C61.2148 24.3221 61.5814 23.9208 62.076 23.9208C62.5717 23.9208 62.9351 24.3157 62.9351 24.8003V24.807C62.9351 25.288 62.5683 25.6897 62.0699 25.6897C61.5788 25.6897 61.2148 25.2947 61.2148 24.8135Z" fill="#9C9B9B"/>
<path d="M56.8042 5.02423V22.6145H59.3567V5.43482C59.3567 5.43482 58.8043 4.93179 58.0776 4.85056C57.9822 4.83994 57.8891 4.83527 57.7998 4.83527C57.228 4.83527 56.8042 5.02423 56.8042 5.02423Z" fill="url(#paint1_linear_3376_33891)"/>
<path d="M60.248 5.02423V22.6145H62.8002V5.43482C62.8002 5.43482 62.2484 4.93179 61.5214 4.85056C61.4259 4.83994 61.3328 4.83527 61.2435 4.83527C60.6716 4.83527 60.248 5.02423 60.248 5.02423Z" fill="url(#paint2_linear_3376_33891)"/>
<path d="M53.4907 22.6413H56.0432V11.7258H53.4907V22.6413Z" fill="url(#paint3_linear_3376_33891)"/>
<path d="M56.0431 10.6155C56.0431 10.6155 55.4907 10.1125 54.764 10.0311C54.057 9.95249 53.4907 10.205 53.4907 10.205V11.4097H56.0431V10.6155Z" fill="#1C3157"/>
<path d="M35 10.2274V22.359C35.3443 22.1748 35.6028 22.0692 36.0202 22.0692C36.618 22.0692 37.1653 22.2838 37.5917 22.6402V15.3733C37.5917 15.0191 37.4998 12.4461 39.9845 12.4494C42.044 12.4521 42.476 13.8045 42.476 15.5252V22.6602H45.1149V15.272C45.1149 14.4543 45.3446 12.5009 47.6403 12.5728C49.5496 12.633 49.9997 13.8045 49.9997 15.8539V22.6602H52.6387V15.3984C52.6387 11.4516 49.8304 10.3192 48.3538 10.2533C44.6092 10.0862 43.8511 12.3678 43.8511 12.3678C43.5611 11.0759 41.8616 10.2773 40.4892 10.26C38.4007 10.2336 37.2642 11.1621 37.2642 11.1621L37.2601 10.6982C37.1934 10.6332 36.7028 10.1651 36.0788 10.0871C35.9905 10.0761 35.9049 10.0714 35.8228 10.0714C35.4477 10.0714 35.1458 10.1704 35 10.2274Z" fill="url(#paint4_linear_3376_33891)"/>
</g>
<defs>
<linearGradient id="paint0_linear_3376_33891" x1="5.80714" y1="19.0107" x2="26.0488" y2="19.0107" gradientUnits="userSpaceOnUse">
<stop stop-color="#10324A"/>
<stop offset="0.00092914" stop-color="#10324A"/>
<stop offset="1" stop-color="#47C0EE"/>
</linearGradient>
<linearGradient id="paint1_linear_3376_33891" x1="58.0805" y1="22.6145" x2="58.0805" y2="4.8353" gradientUnits="userSpaceOnUse">
<stop stop-color="#10324A"/>
<stop offset="0.208589" stop-color="#10324A"/>
<stop offset="0.208714" stop-color="#10324A"/>
<stop offset="0.343558" stop-color="#007AC1"/>
<stop offset="0.484663" stop-color="#10324A"/>
<stop offset="0.485142" stop-color="#10324A"/>
<stop offset="1" stop-color="#10324A"/>
</linearGradient>
<linearGradient id="paint2_linear_3376_33891" x1="61.5241" y1="22.6145" x2="61.5241" y2="4.8353" gradientUnits="userSpaceOnUse">
<stop stop-color="#10324A"/>
<stop offset="0.208589" stop-color="#10324A"/>
<stop offset="0.208714" stop-color="#10324A"/>
<stop offset="0.343558" stop-color="#007AC1"/>
<stop offset="0.484663" stop-color="#10324A"/>
<stop offset="0.485142" stop-color="#10324A"/>
<stop offset="1" stop-color="#10324A"/>
</linearGradient>
<linearGradient id="paint3_linear_3376_33891" x1="54.7669" y1="22.6413" x2="54.7669" y2="11.7257" gradientUnits="userSpaceOnUse">
<stop stop-color="#10324A"/>
<stop offset="0.386503" stop-color="#10324A"/>
<stop offset="0.386657" stop-color="#10324A"/>
<stop offset="0.552147" stop-color="#007AC1"/>
<stop offset="0.846626" stop-color="#10324A"/>
<stop offset="0.846768" stop-color="#10324A"/>
<stop offset="1" stop-color="#10324A"/>
</linearGradient>
<linearGradient id="paint4_linear_3376_33891" x1="43.8194" y1="22.6603" x2="43.8194" y2="10.0714" gradientUnits="userSpaceOnUse">
<stop stop-color="#10324A"/>
<stop offset="0.349693" stop-color="#10324A"/>
<stop offset="0.34983" stop-color="#10324A"/>
<stop offset="0.496933" stop-color="#007AC1"/>
<stop offset="0.631902" stop-color="#10324A"/>
<stop offset="0.632244" stop-color="#10324A"/>
<stop offset="1" stop-color="#10324A"/>
</linearGradient>
<clipPath id="clip0_3376_33891">
<rect width="66" height="32" fill="white"/>
</clipPath>
</defs>
</svg>
